-------------------------------------------------
-------------------------------------------------
File Name    : The Last Airbender[2010]DvDrip-LW
Type         : Movie
Format       : AVI
File Size    : 698 MB
Duration     : 01:43:14
Language     : English
Source       : DvD
Subtitles    : None
Genre        : Action | Adventure | Family | Fantasy
IMDB Link    : http://www.imdb.com/title/tt0938283/
-------------------------------------------------
-------------------------------------------------
Format                           : MPEG-4 Visual
Format profile                   : Simple@L3
Format settings, BVOP            : Yes
Format settings, QPel            : No
Format settings, GMC             : No warppoints
Format settings, Matrix          : Default (MPEG)
Muxing mode                      : Packed bitstream
Codec ID                         : XVID
Codec ID/Hint                    : XviD
Duration                         : 1h 43mn
Bit rate                         : 809 Kbps
Width                            : 608 pixels
Height                           : 256 pixels
Display aspect ratio             : 2.35:1
Frame rate                       : 23.976 fps
Resolution                       : 8 bits
Colorimetry                      : 4:2:0
Scan type                        : Progressive
Bits/(Pixel*Frame)               : 0.217
Stream size                      : 597 MiB (85%)
Writing library                  : XviD 1.0.3
-------------------------------------------------
-------------------------------------------------
Format                           : MPEG Audio
Format version                   : Version 1
Format profile                   : Layer 3
Mode                             : Joint stereo / MS Stereo
Codec ID                         : 55
Codec ID/Hint                    : MP3
Duration                         : 1h 43mn
Bit rate mode                    : Variable
Bit rate                         : 125 Kbps
Nominal bit rate                 : 128 Kbps
Channel(s)                       : 2 channels
Sampling rate                    : 48.0 KHz
Stream size                      : 92.2 MiB (13%)
Alignment                        : Aligned on interleaves
Interleave, duration             : 24 ms (0.58 video frame)
Interleave, preload duration     : 141 ms
Writing library                  : LAME3.90
-------------------------------------------------
-------------------------------------------------
In a world ravaged by the Fire nation's aggression 
toward the peaceful Air, Water and Earth nations, 
reluctant youth Aang (Noah Ringer) learns that he's 
an Avatar -- a rare being who can manipulate all four 
elements and restore peace to the planet. Now Aang 
must join with his pal Katara (Nicola Peltz) and other 
allies to fulfill his destiny. M. Night Shyamalan 
directs this live-action adaptation of the animated 
series "Avatar: The Last Airbender."

Cast: Noah Ringer, Nicola Peltz

Director: M. Night Shyamalan
-------------------------------------------------
